<svg xmlns="http://www.w3.org/2000/svg" xmlns:xlink="http://www.w3.org/1999/xlink" width="64" height="64" viewBox="0 0 64 64" xml:space="preserve" style="clip-rule:evenodd;fill-rule:evenodd;stroke-linejoin:round;stroke-miterlimit:1.41420996;enable-background:new"><defs><linearGradient id="a" x1=".025" y1=".079" x2="1" y2="0" gradientUnits="userSpaceOnUse" gradientTransform="rotate(90 177.831 370.053)scale(473.895)"><stop offset="0" style="stop-color:#ec2802;stop-opacity:1"/><stop offset="1" style="stop-color:#fcb200;stop-opacity:1"/></linearGradient><linearGradient xlink:href="#a" id="b" x1="19.063" y1="0" x2="19" y2="43.25" gradientUnits="userSpaceOnUse" gradientTransform="matrix(1.40188 0 0 1.34821 21.364 -32.96)"/><clipPath clipPathUnits="userSpaceOnUse" id="c"><path d="M14.813 26.75 19 15.945l4.187 10.805L19 43.25Z" style="fill:none;stroke:#000;stroke-width:.03779528;stroke-linecap:butt;stroke-linejoin:miter;stroke-miterlimit:1.41420996;stroke-dasharray:none;stroke-opacity:1"/></clipPath><filter style="color-interpolation-filters:sRGB" id="d" x="-.096" width="1.192" y="-.074" height="1.148"><feGaussianBlur stdDeviation="1.002"/></filter></defs><g style="display:inline"><path d="m43.566 2.972-1.39 3.37C45.912 17.854 45.912 17.854 48 27.896c2.087-10.042 2.087-10.042 5.825-21.552l-1.391-3.37L48-7.772Z" style="clip-rule:evenodd;fill:#069efe;fill-opacity:1;fill-rule:evenodd;stroke:none;stroke-width:.26960364;stroke-linecap:butt;stroke-linejoin:miter;stroke-miterlimit:1.41420996;stroke-dasharray:none;stroke-opacity:.4330357;paint-order:stroke markers fill" transform="translate(-16 35.82)"/><path d="M43.093-32.96h9.814l21.729 53.928h-9.112L48-20.221 30.476 20.968h-9.112z" style="clip-rule:evenodd;fill:url(#b);fill-opacity:1;fill-rule:evenodd;stroke:url(#linearGradient10962);stroke-width:0;stroke-linecap:butt;stroke-linejoin:miter;stroke-miterlimit:1.41420996;stroke-dasharray:none;stroke-opacity:1" transform="translate(-16 35.82)"/><path transform="matrix(1.3912 0 0 1.33794 5.567 6.716)" clip-path="url(#c)" style="clip-rule:evenodd;display:inline;fill:#fff;fill-opacity:1;fill-rule:evenodd;stroke:none;stroke-width:0;stroke-linecap:round;stroke-linejoin:round;stroke-miterlimit:0;stroke-dasharray:none;stroke-dashoffset:0;stroke-opacity:1;paint-order:markers fill stroke;filter:url(#d)" d="M19 32.395 31.5 0 6.5.133Z"/></g></svg>