<svg xmlns="http://www.w3.org/2000/svg" viewBox="0 0 177 177"><path d="M88 29c2.678 2.415 4.304 5.01 6.082 8.137l1.803 3.15 1.927 3.4 3.05 5.332 2.082 3.644c3.29 5.761 6.639 11.488 9.993 17.212 5.42 9.265 10.76 18.574 16.074 27.9a3116 3116 0 0 0 17.805 30.787l1.552 2.657q1.783 3.037 3.589 6.062l1.945 3.281 1.793 3.004C157 146 157 146 157 148c-3.207.263-6.41.422-9.625.563l-2.738.228c-6.556.215-6.556.215-9.396-2.428-1.621-2.378-2.936-4.798-4.241-7.363a2147 2147 0 0 0-3.156-5.504 2410 2410 0 0 1-3.344-6.059c-6.407-11.543-13.005-22.963-19.688-34.348-3.24-5.523-6.462-11.057-9.687-16.589l-3.555-6.094L89 66c-2.757 3.305-5.029 6.59-7.102 10.36l-1.72 3.105-1.803 3.285c-5.253 9.475-10.606 18.87-16.146 28.18-2.297 3.87-4.574 7.752-6.854 11.632L51 130h17q2.257 3.933 4.5 7.875c.43.746.859 1.493 1.3 2.262l1.231 2.168 1.143 2C77 146 77 146 77 148H20c1.398-3.495 2.717-6.45 4.547-9.676l1.538-2.72c.55-.962 1.1-1.925 1.665-2.917l1.747-3.074c5.233-9.191 10.563-18.325 15.905-27.453a3361 3361 0 0 0 11.035-19.035l1.874-3.249a19099 19099 0 0 0 9.654-16.77C74.542 51.674 81.14 40.264 88 29" fill="#3C9CF3"/><path d="M93 84h2l1.218 2.209c7.75 14.038 15.562 28.02 23.782 41.791q2.788 4.684 5.563 9.375l1.303 2.184c1.652 2.789 3.106 5.356 4.134 8.441h-21l-2.895-5.02-1.882-3.262a4222 4222 0 0 1-4.082-7.094c-3.16-5.497-6.337-10.98-9.621-16.405l-1.558-2.599q-1.43-2.382-2.899-4.742c-3.052-5.113-3.052-5.113-3.098-8.433 1.446-3.416 3.199-6.574 5.097-9.757.378-.646.755-1.29 1.143-1.956A903 903 0 0 1 93 84" fill="#6FDDA0"/><path d="M80 107c2.598 2.351 4.165 4.808 5.855 7.867l1.627 2.917 1.706 3.091c4.323 7.76 8.727 15.415 13.519 22.895C104 146 104 146 104 148H83q-2.977-5.12-5.937-10.25l-1.71-2.934-1.63-2.832-1.508-2.602c-1.136-2.227-1.959-3.9-2.215-6.382.804-1.923.804-1.923 2.09-3.89l1.377-2.15 1.47-2.21 1.46-2.258A550 550 0 0 1 80 107" fill="#F5B657"/><path d="m88 29 2 1c-1.477 4.677-1.477 4.677-4.125 6.313L84 37c1.125-2.972 2.223-5.334 4-8" fill="#70B6F5"/></svg>