<svg viewBox="0 0 16 16" xmlns="http://www.w3.org/2000/svg"><path d="M8 1a7 7 0 0 0-7 7 7 7 0 0 0 7 7 7 7 0 0 0 7-7 7 7 0 0 0-7-7m0 1a6 6 0 0 1 6 6 6 6 0 0 1-6 6 6 6 0 0 1-6-6 6 6 0 0 1 6-6" style="opacity:1;vector-effect:none;fill:#373737;fill-opacity:1;stroke:none;stroke-width:4;stroke-linecap:square;stroke-linejoin:round;stroke-miterlimit:4;stroke-dasharray:none;stroke-dashoffset:3.20000005;stroke-opacity:.55063291"/><path style="opacity:1;vector-effect:none;fill:#373737;fill-opacity:1;stroke:none;stroke-width:4;stroke-linecap:square;stroke-linejoin:round;stroke-miterlimit:4;stroke-dasharray:none;stroke-dashoffset:3.20000005;stroke-opacity:.55063291" d="M5 1041.362h6v6H5z" transform="translate(0 -1036.362)"/></svg>